<svg width="639" height="823" viewBox="0 0 639 823" fill="none" xmlns="http://www.w3.org/2000/svg">
  <g opacity="0.08">
    <path d="M693.433 0.357909L696.285 0.357909C659.131 42.9321 575.622 74.3101 482.13 80.7283C456.814 82.4399 440.483 91.9246 434.849 108.184C430.713 120.165 432.425 135.212 439.913 151.757C447.4 168.23 459.809 184.632 475.855 199.18C481.988 204.743 488.976 211.803 496.393 219.362C530.837 254.377 578.047 302.229 619.908 280.264C642.8 268.212 647.079 245.463 651.571 221.43C656.136 197.041 660.842 171.796 686.872 159.673C694.716 156.036 703.773 153.468 714.042 151.971L714.042 156.321C704.415 157.747 696 160.172 688.655 163.595C664.622 174.791 660.272 197.897 655.708 222.286C651.215 246.319 646.58 271.136 621.834 284.115C589.172 301.23 554.514 279.622 524.419 252.666C500.529 233.625 478.636 209.806 462.519 195.9C407.037 148.12 389.922 75.9504 463.589 66.9649C536.115 58.0507 602.222 33.2335 643.941 0.429196L693.433 0.357909Z" fill="#53BDB1"/>
    <path d="M564.993 776.324C556.649 777.536 547.949 780.103 538.75 782.813C522.989 787.449 506.872 792.155 491.255 790.586C477.349 791.941 463.656 790.872 451.105 783.954C436.129 775.682 431.209 755.643 437.413 740.881C456.882 694.598 526.555 692.174 536.182 639.402L536.182 639.33C542.173 617.294 529.764 592.121 516.143 575.647C492.966 547.764 450.749 524.801 412.596 520.094C410.884 520.165 409.101 520.165 407.39 520.237C392.129 520.664 375.227 521.092 358.469 519.951C329.943 519.809 300.277 517.027 277.599 502.979C241.8 480.871 251.784 424.106 285.444 434.161C287.013 432.949 288.724 431.879 290.507 431.166C297.496 428.242 309.405 427.6 325.95 441.506C343.921 456.553 360.68 463.328 378.651 462.972C394.482 462.615 411.597 456.696 434.133 443.86C454.1 432.449 473.284 415.619 493.537 397.72C524.843 370.193 557.291 341.667 593.946 333.609C616.41 328.688 642.154 329.401 670.537 335.82C684.443 338.957 699.063 343.45 714.181 349.298L714.181 353.862C698.706 347.8 683.802 343.165 669.61 339.956C641.869 333.68 616.695 332.967 594.873 337.745C559.288 345.589 527.268 373.687 496.318 400.929C475.851 418.9 456.525 435.944 436.201 447.568C413.024 460.832 395.267 466.894 378.722 467.25C359.61 467.678 341.995 460.547 323.169 444.787C311.33 434.874 300.633 431.594 292.147 435.159C284.588 438.368 279.525 446.855 278.669 457.98C277.67 470.602 282.734 489.072 300.063 499.841C329.658 518.168 372.732 516.956 407.319 516.029C410.884 515.958 414.379 515.815 417.802 515.744C459.164 514.817 511.437 539.42 539.249 572.937C553.226 589.767 565.92 615.797 559.716 638.546L559.716 638.617C553.298 661.366 529.693 676.699 506.801 691.461C490.328 702.158 474.781 712.213 465.796 724.621C457.167 736.459 453.744 748.797 456.097 759.28C458.094 768.123 463.942 775.325 473.569 780.674C493.465 791.728 515.929 785.095 537.609 778.748C546.951 775.967 555.794 773.4 564.423 772.116C589.24 768.479 618.478 771.26 646.718 779.889C673.39 788.091 696.995 801.141 714.11 817.044L714.11 822.963C697.28 806.276 673.033 792.512 645.435 784.026C618.193 775.611 588.883 772.829 564.993 776.324Z" fill="#53BDB1"/>
    <path d="M384.626 64.0428C345.617 84.3672 308.677 103.551 296.054 126.442C288.281 140.562 286.784 152.686 291.419 163.525C304.113 192.693 360.379 206.884 410.014 219.435C447.453 228.849 479.758 237.05 492.666 250.314C508.141 266.217 514.203 283.19 510.709 300.733C500.796 350.938 416.646 391.158 391.044 402.283C350.467 419.969 321.442 417.045 287.283 391.943C283.004 388.805 278.511 385.097 273.733 381.175C252.767 363.988 226.595 342.665 199.567 352.506C178.387 360.208 156.494 355.43 136.312 338.672C119.482 324.623 104.577 302.587 95.5205 278.198C92.2401 269.355 89.3875 260.155 86.6063 251.241C76.3372 218.152 66.5672 186.916 35.6171 167.02C25.6332 160.601 13.7238 154.255 0.744732 148.621L0.744732 143.985C14.6509 149.904 27.3447 156.608 37.9705 163.454C70.2042 184.206 80.616 217.652 90.7426 250.029C93.5238 258.872 96.305 268 99.5854 276.771C108.357 300.519 122.762 321.913 139.093 335.463C152.286 346.445 173.252 357.641 198.141 348.584C227.451 337.887 254.621 360.066 276.443 377.965C281.15 381.816 285.643 385.453 289.85 388.591C322.512 412.624 350.395 415.405 389.333 398.432C403.881 392.085 432.121 378.679 457.936 360.137C486.319 339.67 502.65 319.417 506.501 300.02C509.639 283.903 504.005 268.214 489.6 253.381C477.548 240.972 444.173 232.557 408.944 223.643C358.311 210.878 300.975 196.401 287.497 165.308C282.291 153.328 283.931 139.635 292.275 124.445C305.539 100.413 342.979 80.9441 382.629 60.3345C418.001 41.9356 454.228 23.0375 473.911 0.431059L479.473 0.431059C459.862 24.8916 421.852 44.7169 384.626 64.0428Z" fill="#53BDB1"/>
    <path d="M303.916 38.8725C280.739 50.354 258.846 61.2649 248.363 75.6703C231.961 98.2054 225.542 124.021 230.32 148.41C235.17 173.299 251.358 195.406 275.819 210.524C285.66 216.586 304.843 222.434 325.239 228.638C366.03 241.047 412.242 255.095 418.374 279.485C420.371 287.472 419.444 294.675 415.593 300.879C405.324 317.495 376.299 323.842 353.051 328.905C342.996 331.116 334.296 332.97 328.947 335.323C299.994 347.946 279.242 345.806 254.852 327.907C251.215 325.197 247.65 322.202 243.799 318.993C233.886 310.649 223.688 301.949 211.922 299.453C206.145 298.24 200.654 299.31 194.806 300.451C187.818 301.806 180.544 303.232 173.127 300.308C143.603 288.898 132.763 247.75 124.063 214.661C121.638 205.461 119.356 196.761 116.932 189.772C101.1 144.274 79.4921 82.0173 33.2809 52.2795C24.2954 46.503 13.1705 40.8692 1.04713 36.1625L1.04713 31.5985C14.0975 36.5191 26.0782 42.5095 35.6343 48.7138C83.0578 79.236 105.022 142.349 120.997 188.417C123.493 195.62 125.775 204.391 128.271 213.662C136.757 245.825 147.24 285.832 174.767 296.457C181.114 298.882 187.39 297.67 194.093 296.386C200.083 295.245 206.359 294.033 212.92 295.388C225.756 298.098 236.382 307.083 246.651 315.783C250.36 318.921 253.925 321.916 257.42 324.484C280.383 341.385 299.923 343.31 327.307 331.401C333.012 328.905 341.926 326.98 352.195 324.698C374.731 319.777 402.685 313.644 412.028 298.597C415.308 293.32 416.021 287.472 414.31 280.483C408.747 258.376 361.823 244.113 324.027 232.703C302.49 226.142 283.877 220.508 273.608 214.161C248.149 198.33 231.248 175.295 226.184 149.195C221.192 123.593 227.824 96.6365 244.94 73.103C256.065 57.8419 278.386 46.7169 302.062 35.0215C322.957 24.681 344.28 14.0553 357.972 0.291806L363.962 0.291807C349.913 16.0521 326.665 27.6049 303.916 38.8725Z" fill="#53BDB1"/>
    <path d="M228.747 31.2446L226.964 33.384C204.786 60.5544 179.683 91.2906 191.307 128.231C194.16 137.359 198.938 146.273 203.502 154.831C213.557 173.729 223.969 193.269 215.269 216.874C209.992 231.208 202.504 234.988 197.084 235.701C188.383 236.77 178.97 230.637 170.698 218.443C158.147 199.973 152.513 177.865 147.093 156.471C144.454 146.131 141.744 135.434 138.321 125.521C124.415 85.5855 106.088 32.7421 70.5021 0.29441L76.7064 0.294411C110.794 33.5979 128.694 85.015 142.315 124.095C145.809 134.221 148.59 144.99 151.229 155.402C156.578 176.439 162.14 198.118 174.263 216.018C181.537 226.644 189.667 232.278 196.585 231.422C202.575 230.709 207.638 225.146 211.275 215.376C219.334 193.554 209.778 175.726 199.722 156.828C195.087 148.056 190.238 138.999 187.242 129.515L187.242 129.443C174.977 90.2922 200.863 58.629 223.684 30.6027L225.467 28.4633C226.037 27.7502 226.893 26.7518 227.891 25.5395C235.522 16.34 242.154 7.92497 247.716 0.294418L253.065 0.294418C246.076 10.0644 238.232 19.8343 231.172 28.3206C230.102 29.533 229.318 30.5314 228.747 31.2446Z" fill="#53BDB1"/>
    <path d="M417.383 701.93C397.691 709.832 379.82 712.556 367.065 709.68C348.908 705.581 338.913 691.61 329.305 678.059C325.812 673.227 322.178 668.138 318.266 663.694C308.026 652.085 295.749 646.049 282.731 639.629C269.168 632.936 255.157 626.074 243.788 612.402L243.599 612.092C239.145 604.75 236.135 597.919 234.56 591.8C223.641 566.741 223.169 537.856 247.974 528.239C279.237 516.153 314.276 559.122 341.24 570.231C377.835 585.355 413.991 564.378 451.519 575.046C478.368 582.669 495.771 612.223 493.93 624.313C493.721 625.768 493.359 627.268 492.949 628.715C492.913 629.622 492.829 630.477 492.692 631.38C490.839 643.771 482.489 657.117 468.504 670.039C454.829 682.77 436.203 694.348 417.383 701.93ZM284.7 635.771C297.521 642.081 310.737 648.61 321.558 660.846C325.615 665.448 329.298 670.59 332.835 675.574C342.447 689.025 351.582 701.75 368.038 705.479C392.347 710.983 437.102 693.323 465.649 666.948C478.901 654.705 486.763 642.197 488.475 630.809C490.32 618.619 479.392 609.103 456.187 602.483C440.118 597.911 423.292 595.883 406.966 593.976C385.218 591.349 362.765 588.695 341.611 579.986C333.915 576.805 326.415 572.471 319.214 568.25C300.619 557.371 283.007 547.136 261.482 555.47C254.768 558.081 249.344 561.248 245.52 564.781C234.52 574.943 235.047 589.7 247.169 609.861C258.018 622.654 271.581 629.348 284.7 635.771Z" fill="#53BDB1"/>
    <path d="M597.932 193.484C596.078 194.625 594.01 195.481 591.799 196.123C577.821 200.116 561.348 195.98 546.657 184.855C529.542 171.876 518.417 152.193 518.417 134.721C518.417 132.867 518.56 130.942 518.773 129.159C519.843 121.457 523.837 115.324 530.683 110.831C544.375 101.917 567.695 101.703 582.742 105.982C591.442 108.478 599.358 115.823 604.992 126.663C610.127 136.504 613.051 148.628 613.051 159.967C612.979 175.584 607.488 187.85 597.932 193.484ZM581.601 110.118C569.549 106.624 546.515 105.697 533.036 114.468C527.26 118.248 523.908 123.382 523.052 129.801C522.838 131.441 522.696 133.081 522.696 134.793C522.696 150.981 533.108 169.38 549.225 181.503C562.846 191.772 577.964 195.623 590.658 192.058C592.512 191.559 594.224 190.774 595.793 189.847C604.065 184.926 608.772 174.087 608.772 159.967C608.7 139.713 598.36 114.896 581.601 110.118Z" fill="#53BDB1"/>
    <path d="M604.017 432.361C606.103 431.738 608.322 431.447 610.624 431.399C625.159 431.159 640 439.418 651.311 453.966C664.484 470.933 670.136 492.824 665.614 509.701C665.134 511.492 664.498 513.315 663.83 514.982C660.803 522.144 655.358 527.035 647.582 529.602C632.049 534.669 609.469 528.84 596.042 520.813C588.284 516.15 582.539 507.006 579.903 495.078C577.49 484.243 577.804 471.776 580.738 460.823C584.85 445.756 593.328 435.329 604.017 432.361ZM598.215 517.113C608.952 523.607 630.961 530.465 646.25 525.48C652.808 523.325 657.375 519.232 659.863 513.254C660.494 511.725 661.056 510.178 661.499 508.525C665.689 492.888 660.394 472.421 647.964 456.54C637.465 443.095 623.858 435.462 610.674 435.621C608.754 435.623 606.897 435.938 605.142 436.427C595.878 439.039 588.526 448.291 584.872 461.93C579.699 481.512 583.264 508.16 598.215 517.113Z" fill="#53BDB1"/>
    <path d="M492.907 495.382C489.879 493.634 486.411 490.085 487.135 483.236C487.807 476.828 492.395 467.366 496.939 462.992C503.479 456.675 516.547 458.165 525.328 463.234C531.585 466.847 535.249 471.922 535.247 477.17C535.264 478.189 535.122 479.251 534.85 480.305C533.474 485.835 528.023 490.964 519.985 494.397C511.709 497.895 500.123 499.549 492.907 495.382ZM531.508 479.451C531.685 478.679 531.782 477.928 531.8 477.198C531.752 473.201 528.778 469.263 523.58 466.262C513.891 460.668 503.501 461.532 499.32 465.511C495.415 469.244 491.206 478.05 490.61 483.627C490.188 487.622 491.526 490.548 494.655 492.355C499.953 495.414 509.8 494.908 518.692 491.161C525.578 488.206 530.382 483.848 531.508 479.451Z" fill="#53BDB1"/>
    <path d="M567.679 680.468C567.394 668.773 572.315 657.149 582.655 644.74C598.915 625.343 622.591 614.146 645.411 603.307C646.838 602.665 648.193 602.023 649.547 601.31C699.396 577.634 739.902 555.241 775.416 522.865C776.985 521.439 778.768 519.87 780.693 518.087C783.546 515.52 786.826 512.596 790.321 509.387L790.321 515.163C787.896 517.374 785.614 519.371 783.546 521.225C781.62 522.936 779.837 524.577 778.269 525.931C742.326 558.664 701.535 581.2 651.33 605.09C649.975 605.731 648.549 606.373 647.123 607.086C624.659 617.712 601.482 628.694 585.793 647.379C576.166 658.931 571.53 669.7 571.816 680.254C572.101 694.089 575.738 705.784 582.299 714.057C589.43 723.042 599.485 727.535 612.25 727.25C634.857 726.822 655.324 716.767 675.149 706.997C694.903 697.298 715.227 687.314 738.262 686.245C757.73 685.389 775.701 687.956 790.321 693.519L790.321 698.083C776.058 692.378 758.087 689.668 738.476 690.523C716.368 691.522 696.401 701.363 677.075 710.848C656.893 720.76 635.998 731.03 612.393 731.529C585.579 732.171 568.393 712.559 567.679 680.468Z" fill="#53BDB1"/>
  </g>
</svg>
